<svg width="30" height="30" viewBox="0 0 30 30" fill="none" xmlns="http://www.w3.org/2000/svg">
<g clip-path="url(#clip0_8218_13947)">
<path d="M7.46064 7.21112L5.1816 1.95865C5.0915 1.75096 5.24374 1.519 5.47011 1.519H6.8237C6.87736 1.519 6.93015 1.53271 6.97699 1.55889L11.2784 3.96055C11.3049 3.97536 11.3383 3.96977 11.3585 3.94696L14.7681 0.104194C14.8914 -0.03465 15.1082 -0.03465 15.2314 0.104194L18.6411 3.94696C18.6613 3.96971 18.6946 3.97536 18.7212 3.96055L23.0226 1.55889C23.0694 1.53271 23.1222 1.519 23.1758 1.519H24.5294C24.7558 1.519 24.908 1.75096 24.8179 1.95865L22.539 7.21112V7.98728H7.55867L7.46064 7.21112Z" fill="#FEE97D"/>
<path d="M9.60827 4.3352L8.85978 2.61019L6.97687 1.55893C6.93004 1.53275 6.87724 1.51904 6.82358 1.51904H5.47005C5.24368 1.51904 5.0915 1.751 5.18161 1.95869L7.46058 7.21116L7.55868 7.98731H22.539V7.21116L22.9955 6.15911L11.3754 5.56095C10.6014 5.521 9.91675 5.04614 9.60827 4.3352Z" fill="#FEDF30"/>
<path d="M14.4483 29.7685L0.243489 15.2869C-0.0702776 14.9671 -0.0469832 14.4482 0.294258 14.1577L5.39714 9.814C5.53684 9.69507 5.71434 9.62973 5.89787 9.62973H24.1018C24.2853 9.62973 24.4628 9.69507 24.6025 9.814L29.7054 14.1577C30.0466 14.4482 30.0699 14.967 29.7561 15.2869L15.5513 29.7685C15.2484 30.0772 14.7511 30.0772 14.4483 29.7685Z" fill="#99E6FC"/>
<path d="M4.41441 15.2869C4.10064 14.9671 4.12394 14.4482 4.46518 14.1577L9.56806 9.814C9.70776 9.69507 9.88527 9.62973 10.0688 9.62973H5.89793C5.71447 9.62973 5.5369 9.69507 5.3972 9.814L0.294258 14.1577C-0.0469832 14.4482 -0.0702776 14.967 0.243489 15.2869L14.4484 29.7685C14.7512 30.0772 15.2485 30.0772 15.5513 29.7685L17.0853 28.2046L4.41441 15.2869Z" fill="#62DBFB"/>
<path d="M12.9727 9.62955L9.18356 14.6953L5.39746 9.81394C5.5376 9.69531 5.71522 9.62955 5.89838 9.62955H7.46138H12.9727Z" fill="#01D0FB"/>
<path d="M9.97932 9.63563L10.0692 9.62973V9.62955H7.46126H5.89826C5.71516 9.62955 5.5376 9.69531 5.39746 9.81387V9.81412L7.05615 11.9526L9.5685 9.814C9.68522 9.71461 9.82843 9.65333 9.97932 9.63563Z" fill="#01C0FA"/>
<path d="M24.6036 9.81394L20.8175 14.6953L17.0283 9.62955H22.5397H24.1027C24.2858 9.62955 24.4635 9.69531 24.6036 9.81394Z" fill="#01D0FB"/>
<path d="M29.9753 14.6861L29.853 14.6953H20.8174L24.6035 9.81393L29.7061 14.1575C29.8696 14.297 29.96 14.4888 29.9753 14.6861Z" fill="#01C0FA"/>
<path d="M20.8173 14.6953L15.0004 29.8772L9.18359 14.6953H20.8173Z" fill="#01C0FA"/>
<path d="M16.0482 27.1455L12.6133 23.6438L15.0016 29.8772L16.0482 27.1455Z" fill="#08A9F1"/>
<path d="M5.39784 9.81393L9.18395 14.6953H0.0253906C0.0382978 14.4949 0.129263 14.2995 0.295212 14.1575L5.39784 9.81393Z" fill="#01C0FA"/>
<path d="M29.9756 14.6861C29.9922 14.9006 29.9203 15.1206 29.7574 15.2872L15.5522 29.7684C15.4004 29.9233 15.1994 30.0001 14.999 29.9995L15.0009 29.8772L20.8177 14.6953H29.8533L29.9756 14.6861Z" fill="#01D0FB"/>
<path d="M17.0862 28.2045L16.0475 27.1455L15.0009 29.8772L14.999 29.9995C15.1994 30.0001 15.4004 29.9233 15.5522 29.7684L17.0862 28.2045Z" fill="#01C0FA"/>
<path d="M17.0281 9.62955L20.8173 14.6953H9.18359L12.9728 9.62955H17.0281Z" fill="#08A9F1"/>
<path d="M22.5391 9.62974H7.46072C7.02723 9.62974 6.67578 9.2783 6.67578 8.8448V7.99606C6.67578 7.56256 7.02723 7.21112 7.46072 7.21112H22.5391C22.9726 7.21112 23.3241 7.56256 23.3241 7.99606V8.8448C23.3241 9.2783 22.9726 9.62974 22.5391 9.62974Z" fill="#FEE45A"/>
<path d="M10.0688 8.84474V7.996C10.0688 7.5625 10.4203 7.21106 10.8538 7.21106H7.46072C7.02723 7.21106 6.67578 7.5625 6.67578 7.996V8.84474C6.67578 9.27823 7.02723 9.62968 7.46072 9.62968H10.8538C10.4202 9.62974 10.0688 9.2783 10.0688 8.84474Z" fill="#FED402"/>
<path d="M15.3053 5.39557H14.6934C14.2533 5.39557 13.8965 5.03878 13.8965 4.59864V4.41591C13.8965 3.97578 14.2533 3.61899 14.6934 3.61899H15.3053C15.7455 3.61899 16.1023 3.97578 16.1023 4.41591V4.59864C16.1023 5.03878 15.7455 5.39557 15.3053 5.39557Z" fill="#F28CC4"/>
<path d="M18.3418 6.0322H18.1123C17.8577 6.0322 17.6514 5.82581 17.6514 5.57123C17.6514 5.31665 17.8577 5.11026 18.1123 5.11026H18.3418C18.5965 5.11026 18.8028 5.31665 18.8028 5.57123C18.8028 5.82581 18.5964 6.0322 18.3418 6.0322Z" fill="#F28CC4"/>
<path d="M21.1817 6.0322H20.9522C20.6975 6.0322 20.4912 5.82581 20.4912 5.57123C20.4912 5.31665 20.6975 5.11026 20.9522 5.11026H21.1817C21.4363 5.11026 21.6427 5.31665 21.6427 5.57123C21.6427 5.82581 21.4363 6.0322 21.1817 6.0322Z" fill="#F28CC4"/>
<path d="M11.8877 6.0322H11.6582C11.4036 6.0322 11.1973 5.82581 11.1973 5.57123C11.1973 5.31665 11.4036 5.11026 11.6582 5.11026H11.8877C12.1424 5.11026 12.3487 5.31665 12.3487 5.57123C12.3487 5.82581 12.1424 6.0322 11.8877 6.0322Z" fill="#F28CC4"/>
<path d="M9.04692 6.0322H8.81742C8.56278 6.0322 8.35645 5.82581 8.35645 5.57123C8.35645 5.31665 8.56278 5.11026 8.81742 5.11026H9.04692C9.30156 5.11026 9.50789 5.31665 9.50789 5.57123C9.50789 5.82581 9.30156 6.0322 9.04692 6.0322Z" fill="#F28CC4"/>
<path d="M4.46607 14.1577L7.0566 11.9526L5.39791 9.81412L5.39748 9.8143L0.295212 14.1575C0.129263 14.2995 0.0382978 14.4949 0.0253906 14.6953H0.0256979H4.19656C4.20971 14.4949 4.29987 14.2992 4.46607 14.1577Z" fill="#08A9F1"/>
</g>
<defs>
<clipPath id="clip0_8218_13947">
<rect width="30" height="30" fill="white"/>
</clipPath>
</defs>
</svg>
