<svg width="16" height="16" viewBox="0 0 16 16" fill="none" xmlns="http://www.w3.org/2000/svg">
<path d="M5.33301 3.83334C5.05967 3.83334 4.83301 3.60668 4.83301 3.33334V1.33334C4.83301 1.06001 5.05967 0.833344 5.33301 0.833344C5.60634 0.833344 5.83301 1.06001 5.83301 1.33334V3.33334C5.83301 3.60668 5.60634 3.83334 5.33301 3.83334Z" fill="white"/>
<path d="M10.667 3.83334C10.3937 3.83334 10.167 3.60668 10.167 3.33334V1.33334C10.167 1.06001 10.3937 0.833344 10.667 0.833344C10.9403 0.833344 11.167 1.06001 11.167 1.33334V3.33334C11.167 3.60668 10.9403 3.83334 10.667 3.83334Z" fill="white"/>
<path d="M5.66667 9.66676C5.58 9.66676 5.49333 9.64676 5.41333 9.61342C5.32667 9.58009 5.26 9.53342 5.19333 9.47342C5.07333 9.34676 5 9.18009 5 9.00009C5 8.91342 5.02 8.82676 5.05333 8.74676C5.08667 8.66676 5.13333 8.59342 5.19333 8.52676C5.26 8.46676 5.32667 8.42009 5.41333 8.38676C5.65333 8.28676 5.95333 8.34009 6.14 8.52676C6.26 8.65342 6.33333 8.82676 6.33333 9.00009C6.33333 9.04009 6.32667 9.08676 6.32 9.13342C6.31333 9.17342 6.3 9.21342 6.28 9.25342C6.26667 9.29342 6.24667 9.33342 6.22 9.37342C6.2 9.40676 6.16667 9.44009 6.14 9.47342C6.01333 9.59342 5.84 9.66676 5.66667 9.66676Z" fill="white"/>
<path d="M7.99967 9.66661C7.91301 9.66661 7.82634 9.64661 7.74634 9.61327C7.65967 9.57994 7.59301 9.53327 7.52634 9.47327C7.40634 9.34661 7.33301 9.17994 7.33301 8.99994C7.33301 8.91327 7.35301 8.82661 7.38634 8.74661C7.41967 8.66661 7.46634 8.59327 7.52634 8.52661C7.59301 8.46661 7.65967 8.41994 7.74634 8.38661C7.98634 8.27994 8.28634 8.33994 8.47301 8.52661C8.59301 8.65327 8.66634 8.82661 8.66634 8.99994C8.66634 9.03994 8.65967 9.08661 8.65301 9.13327C8.64634 9.17327 8.63301 9.21327 8.61301 9.25327C8.59967 9.29327 8.57967 9.33327 8.55301 9.37327C8.53301 9.40661 8.49967 9.43994 8.47301 9.47327C8.34634 9.59327 8.17301 9.66661 7.99967 9.66661Z" fill="white"/>
<path d="M10.3337 9.66661C10.247 9.66661 10.1603 9.64661 10.0803 9.61327C9.99366 9.57994 9.92699 9.53327 9.86033 9.47327C9.83366 9.43994 9.80699 9.40661 9.78033 9.37327C9.75366 9.33327 9.73366 9.29327 9.72033 9.25327C9.70033 9.21327 9.68699 9.17327 9.68033 9.13327C9.67366 9.08661 9.66699 9.03994 9.66699 8.99994C9.66699 8.82661 9.74033 8.65327 9.86033 8.52661C9.92699 8.46661 9.99366 8.41994 10.0803 8.38661C10.327 8.27994 10.6203 8.33994 10.807 8.52661C10.927 8.65327 11.0003 8.82661 11.0003 8.99994C11.0003 9.03994 10.9937 9.08661 10.987 9.13327C10.9803 9.17327 10.967 9.21327 10.947 9.25327C10.9337 9.29327 10.9137 9.33327 10.887 9.37327C10.867 9.40661 10.8337 9.43994 10.807 9.47327C10.6803 9.59327 10.507 9.66661 10.3337 9.66661Z" fill="white"/>
<path d="M5.66667 12C5.58 12 5.49333 11.98 5.41333 11.9467C5.33333 11.9134 5.26 11.8666 5.19333 11.8066C5.07333 11.68 5 11.5066 5 11.3333C5 11.2466 5.02 11.16 5.05333 11.08C5.08667 10.9933 5.13333 10.92 5.19333 10.86C5.44 10.6134 5.89333 10.6134 6.14 10.86C6.26 10.9867 6.33333 11.16 6.33333 11.3333C6.33333 11.5066 6.26 11.68 6.14 11.8066C6.01333 11.9266 5.84 12 5.66667 12Z" fill="white"/>
<path d="M7.99967 12C7.82634 12 7.65301 11.9266 7.52634 11.8066C7.40634 11.68 7.33301 11.5066 7.33301 11.3333C7.33301 11.2466 7.35301 11.16 7.38634 11.08C7.41967 10.9933 7.46634 10.92 7.52634 10.86C7.77301 10.6134 8.22634 10.6134 8.47301 10.86C8.53301 10.92 8.57967 10.9933 8.61301 11.08C8.64634 11.16 8.66634 11.2466 8.66634 11.3333C8.66634 11.5066 8.59301 11.68 8.47301 11.8066C8.34634 11.9266 8.17301 12 7.99967 12Z" fill="white"/>
<path d="M10.3337 11.9999C10.1603 11.9999 9.98699 11.9266 9.86033 11.8066C9.80033 11.7466 9.75366 11.6733 9.72033 11.5866C9.68699 11.5066 9.66699 11.4199 9.66699 11.3333C9.66699 11.2466 9.68699 11.1599 9.72033 11.0799C9.75366 10.9933 9.80033 10.9199 9.86033 10.8599C10.0137 10.7066 10.247 10.6333 10.4603 10.6799C10.507 10.6866 10.547 10.6999 10.587 10.7199C10.627 10.7333 10.667 10.7533 10.707 10.7799C10.7403 10.7999 10.7737 10.8333 10.807 10.8599C10.927 10.9866 11.0003 11.1599 11.0003 11.3333C11.0003 11.5066 10.927 11.6799 10.807 11.8066C10.6803 11.9266 10.507 11.9999 10.3337 11.9999Z" fill="white"/>
<path d="M13.6663 6.55991H2.33301C2.05967 6.55991 1.83301 6.33324 1.83301 6.05991C1.83301 5.78657 2.05967 5.55991 2.33301 5.55991H13.6663C13.9397 5.55991 14.1663 5.78657 14.1663 6.05991C14.1663 6.33324 13.9397 6.55991 13.6663 6.55991Z" fill="white"/>
<path d="M10.6667 15.1667H5.33333C2.9 15.1667 1.5 13.7667 1.5 11.3333V5.66668C1.5 3.23334 2.9 1.83334 5.33333 1.83334H10.6667C13.1 1.83334 14.5 3.23334 14.5 5.66668V11.3333C14.5 13.7667 13.1 15.1667 10.6667 15.1667ZM5.33333 2.83334C3.42667 2.83334 2.5 3.76001 2.5 5.66668V11.3333C2.5 13.24 3.42667 14.1667 5.33333 14.1667H10.6667C12.5733 14.1667 13.5 13.24 13.5 11.3333V5.66668C13.5 3.76001 12.5733 2.83334 10.6667 2.83334H5.33333Z" fill="white"/>
</svg>
