<svg width="19" height="18" viewBox="0 0 19 18" fill="none" xmlns="http://www.w3.org/2000/svg">
<path d="M13.7978 5.7589C13.4227 5.34936 12.8395 4.7966 12.5914 6.04472C12.507 6.46909 12.3099 6.79622 12.141 7.05961C11.9589 6.13809 11.4111 5.18427 10.8949 4.54115C10.7018 4.30054 10.0164 3.34405 9.88478 1.74388C9.86513 1.50506 9.58145 1.39291 9.40402 1.554C7.70836 3.09328 6.77764 5.21032 6.74308 7.59367C6.74308 7.59367 6.037 6.99851 5.65341 5.89129C5.55012 5.59313 5.1504 5.53625 4.97697 5.79989C4.94368 5.85051 4.91281 5.90121 4.88497 5.95043C3.5767 8.26371 2.94736 11.0729 3.52916 13.6864C4.50194 18.0632 10.9367 19.2869 14.3433 16.5359C17.6763 13.8445 16.6169 8.83514 13.7978 5.7589Z" fill="#ED694A"/>
<path d="M4.43461 13.9612C3.85956 11.3197 4.46826 8.4832 5.7458 6.13371C5.71349 6.05577 5.68241 5.97515 5.65338 5.89134C5.55009 5.59318 5.15036 5.5363 4.97693 5.79993C4.94364 5.85056 4.91281 5.90126 4.88497 5.95047C3.5767 8.26376 2.94736 11.0729 3.52916 13.6864C3.97287 15.6828 5.55307 17.0228 7.46385 17.6292C5.97323 16.9071 4.8059 15.6693 4.43461 13.9612Z" fill="#D8553A"/>
<path d="M7.65311 7.54981C7.72374 5.38675 8.50611 3.44718 9.90638 1.95719C9.89675 1.87514 9.88961 1.80176 9.88501 1.74608C9.86493 1.50522 9.59163 1.38442 9.41497 1.5441C7.77721 3.02482 6.77899 5.12044 6.74316 7.59362L7.04969 7.83166C7.20065 7.9489 7.40519 7.94381 7.54937 7.8364C7.63539 7.76349 7.64773 7.65345 7.65311 7.54981Z" fill="#D8553A"/>
<path d="M12.7697 8.95843C12.4927 8.65595 12.0619 8.24764 11.8787 9.16955C11.8164 9.48296 11.6707 9.72463 11.546 9.91918C11.4115 9.23852 11.0069 8.53399 10.6257 8.059C10.483 7.88128 9.97682 7.17482 9.87954 5.99283C9.86502 5.81641 9.65552 5.73362 9.52446 5.85259C8.27202 6.98951 7.58454 8.55326 7.55905 10.3136C7.55905 10.3136 7.03751 9.87401 6.75422 9.0562C6.67793 8.83598 6.38265 8.79397 6.25458 8.9887C6.23 9.02607 6.20719 9.06355 6.18662 9.0999C5.22028 10.8085 4.75544 12.8834 5.18516 14.8138C5.90368 18.0467 10.6565 18.9505 13.1727 16.9186C15.6345 14.9307 14.852 11.2307 12.7697 8.95843Z" fill="#F4A32C"/>
<path d="M6.08133 15.0674C5.70087 13.1804 6.09493 11.1556 6.93042 9.46946C6.86675 9.3448 6.80643 9.20699 6.75418 9.05624C6.67789 8.83602 6.38262 8.79397 6.25454 8.9887C6.22997 9.02607 6.20715 9.06355 6.18659 9.09993C5.22028 10.8086 4.75548 12.8835 5.18512 14.8138C5.51932 16.3174 6.72627 17.3168 8.17485 17.7517C7.14565 17.2356 6.3353 16.3288 6.08133 15.0674Z" fill="#E89528"/>
<path d="M11.83 11.8794C11.6425 11.6747 11.3509 11.3982 11.2268 12.0223C11.1847 12.2345 11.0861 12.3981 11.0016 12.5298C10.9106 12.069 10.6367 11.5921 10.3786 11.2706C10.282 11.1502 9.93938 10.672 9.8735 9.8719C9.86365 9.75247 9.72187 9.6964 9.63313 9.77698C8.7853 10.5466 8.31994 11.6052 8.30268 12.7968C8.30268 12.7968 7.9496 12.4992 7.75786 11.9456C7.70622 11.7966 7.50635 11.7681 7.41966 11.8999C7.403 11.9252 7.3876 11.9506 7.37364 11.9752C6.71952 13.1318 6.40484 14.5364 6.69572 15.8432C7.18211 18.0316 10.3995 18.6435 12.1028 17.268C12.6861 16.7969 13.0477 16.1332 13.1211 15.3991C13.2318 14.2871 12.8038 12.942 11.83 11.8794Z" fill="#F4D44E"/>
<path d="M10.9591 14.5901C10.8546 14.476 10.6922 14.322 10.6231 14.6697C10.5996 14.7879 10.5447 14.879 10.4976 14.9524C10.4469 14.6957 10.2943 14.43 10.1505 14.2508C10.0967 14.1838 9.90578 13.9173 9.86908 13.4716C9.86359 13.405 9.78456 13.3739 9.73516 13.4187C9.26284 13.8475 9.00353 14.4372 8.99393 15.1011C8.99393 15.1011 8.79723 14.9353 8.69039 14.6269C8.6616 14.5438 8.55026 14.528 8.50199 14.6015C8.49271 14.6155 8.48413 14.6297 8.4764 14.6434C8.11197 15.2878 7.93664 16.0703 8.09871 16.7984C8.46778 18.4588 11.4929 18.4085 11.6785 16.5509C11.7401 15.9314 11.5016 15.182 10.9591 14.5901Z" fill="#EAE9E8"/>
<path d="M8.8011 17.1279C8.63903 16.4766 8.81435 15.7766 9.17878 15.2002C9.18652 15.188 9.19513 15.1753 9.20438 15.1627C9.25268 15.097 9.36402 15.1112 9.39278 15.1855C9.49962 15.4614 9.69632 15.6097 9.69632 15.6097C9.70423 15.1217 9.88099 14.6788 10.2057 14.3235C10.1331 14.2229 9.91095 13.9805 9.86908 13.4717C9.86359 13.4051 9.78456 13.3739 9.73517 13.4188C9.26284 13.8476 9.00353 14.4373 8.99393 15.1012C8.99393 15.1012 8.79723 14.9354 8.69039 14.627C8.66163 14.5439 8.55026 14.5281 8.50199 14.6015C8.49271 14.6156 8.48413 14.6298 8.4764 14.6435C8.11197 15.2879 7.93664 16.0704 8.09871 16.7985C8.24869 17.4733 8.86484 17.8788 9.54602 17.9767C9.17857 17.7963 8.89616 17.5105 8.8011 17.1279Z" fill="#F7E7A1"/>
<path d="M7.15649 2.39221C7.91674 1.77384 7.91505 0.616957 7.15649 0C6.39623 0.618328 6.39788 1.77525 7.15649 2.39221Z" fill="#D8553A"/>
<path d="M16.2691 7.35516C17.0293 6.7368 17.0276 5.57991 16.2691 4.96295C15.9216 5.24554 15.5105 6.7382 16.2691 7.35516Z" fill="#D8553A"/>
<path d="M2.80375 7.826C3.35166 7.38032 3.35046 6.54659 2.80375 6.1019C2.55333 6.30556 2.25703 7.38134 2.80375 7.826Z" fill="#D8553A"/>
<path d="M12.2933 4.11631C12.8412 3.67063 12.84 2.8369 12.2933 2.39221C11.7454 2.83785 11.7466 3.67165 12.2933 4.11631Z" fill="#D8553A"/>
<path d="M8.25768 10.0309C8.3835 8.54551 8.95075 7.22473 9.9032 6.21782C9.89357 6.14483 9.88545 6.06992 9.87912 5.99289C9.8646 5.81648 9.6551 5.73368 9.52404 5.85265C8.53158 6.75357 7.89462 7.92272 7.65998 9.24512L7.65963 9.24502C7.64223 9.3431 7.62064 9.48598 7.607 9.59823C7.60704 9.59834 7.60707 9.59841 7.60714 9.59851C7.57863 9.83279 7.56211 10.0713 7.55859 10.3137C7.5851 10.3189 8.18515 10.6273 8.25768 10.0309Z" fill="#E89528"/>
<path d="M7.57248 16.1536C7.31391 14.9328 7.53413 13.631 8.04572 12.503C7.94662 12.364 7.83816 12.1773 7.7579 11.9456C7.70622 11.7965 7.50639 11.7681 7.41966 11.8999C7.40303 11.9252 7.38756 11.9505 7.37364 11.9751C6.71952 13.1318 6.40484 14.5364 6.69572 15.8431C6.92353 16.868 7.7503 17.5471 8.73999 17.8382C8.16392 17.4558 7.72816 16.8897 7.57248 16.1536Z" fill="#E8C842"/>
<path d="M9.23603 12.2633C9.32174 11.6507 9.5723 10.9758 9.96672 10.4115C9.92375 10.2521 9.88997 10.0721 9.87348 9.8719C9.86364 9.75247 9.72182 9.6964 9.63312 9.77698C9.10486 10.2565 8.7257 10.8485 8.5103 11.5147L8.50973 11.5145C8.47584 11.6192 8.42793 11.7926 8.39889 11.9295C8.39913 11.9294 8.39938 11.9294 8.39963 11.9293C8.34014 12.2086 8.30706 12.4984 8.30273 12.7968C8.77706 12.856 9.16944 12.7385 9.23603 12.2633Z" fill="#E8C842"/>
</svg>
